<svg xmlns="http://www.w3.org/2000/svg" height="50" width="50" viewBox="-37.5 -62.5 13.542 23.438" fill-rule="evenodd"><path d="M-30.348-58.41v10.43a2.21 2.21 0 01-2.209 2.2 2.2 2.2 0 01-.993-.235 2.21 2.21 0 01.993-4.181c.234 0 .46.036.67.103v-2.67a4.872 4.872 0 00-.663-.045 4.83 4.83 0 00-4.829 4.826 4.82 4.82 0 002.141 4.01c.77.516 1.693.816 2.688.816a4.83 4.83 0 004.829-4.826v-5.328a6.242 6.242 0 003.641 1.164v-2.61a3.641 3.641 0 01-1.933-.552 3.651 3.651 0 00.242.24l-.242-.24a3.659 3.659 0 01-1.668-2.466 3.705 3.705 0 01-.04-.3v-.336zm4.61 3.372a3.651 3.651 0 00.254.205l-.254-.205zm.3.23a3.651 3.651 0 00.264.173l-.264-.173zm.295.192a3.651 3.651 0 00.298.155l-.298-.155zm.328.17a3.651 3.651 0 00.66.226l-.337-.097-.323-.13z" fill="#f83b4f"/></svg>